<svg width="19" height="19" viewBox="0 0 19 19" fill="none" xmlns="http://www.w3.org/2000/svg">
<g id="bytesize:cart">
<g id="Group">
<path id="Vector" d="M3.5625 3.5625H17.8125L16.0312 11.2812H5.34375M16.0312 13.6562H5.9375L2.96875 1.1875H1.1875" stroke="#FCEE0A" stroke-linecap="round" stroke-linejoin="round"/>
<path id="Vector_2" d="M14.8438 17.2188C15.4996 17.2188 16.0312 16.6871 16.0312 16.0312C16.0312 15.3754 15.4996 14.8438 14.8438 14.8438C14.1879 14.8438 13.6562 15.3754 13.6562 16.0312C13.6562 16.6871 14.1879 17.2188 14.8438 17.2188Z" stroke="#FCEE0A" stroke-linecap="round" stroke-linejoin="round"/>
<path id="Vector_3" d="M7.125 17.2188C7.78084 17.2188 8.3125 16.6871 8.3125 16.0312C8.3125 15.3754 7.78084 14.8438 7.125 14.8438C6.46916 14.8438 5.9375 15.3754 5.9375 16.0312C5.9375 16.6871 6.46916 17.2188 7.125 17.2188Z" stroke="#FCEE0A" stroke-linecap="round" stroke-linejoin="round"/>
</g>
</g>
</svg>
